<svg width="23" height="22" viewBox="0 0 23 22" fill="none" xmlns="http://www.w3.org/2000/svg">
    <path d="M11.5 0C8.46243 0 6 2.46243 6 5.5C6 8.53757 8.46243 11 11.5 11C14.5376 11 17 8.53757 17 5.5C17 2.46243 14.5376 0 11.5 0ZM11.5 9C9.567 9 8 7.433 8 5.5C8 3.567 9.567 2 11.5 2C13.433 2 15 3.567 15 5.5C15 7.433 13.433 9 11.5 9Z" fill="#242748"/>
    <path d="M11.5 12C7.91015 12 5 14.9102 5 18.5C5 20.433 6.567 22 8.5 22H14.5C16.433 22 18 20.433 18 18.5C18 14.9102 15.0899 12 11.5 12ZM14.5 20H8.5C7.67157 20 7 19.3284 7 18.5C7 16.0147 8.51472 14 11.5 14C14.4853 14 16 16.0147 16 18.5C16 19.3284 15.3284 20 14.5 20Z" fill="#242748"/>
    <path d="M11.5 13C8.46243 13 6 15.4624 6 18.5C6 19.3284 6.67157 20 7.5 20H15.5C16.3284 20 17 19.3284 17 18.5C17 15.4624 14.5376 13 11.5 13Z" fill="#242748" opacity="0.3"/>
</svg>

