<svg width="23" height="22" viewBox="0 0 23 22" fill="none" xmlns="http://www.w3.org/2000/svg">
    <path d="M11.5 0C8.46243 0 6 2.46243 6 5.5C6 8.53757 8.46243 11 11.5 11C14.5376 11 17 8.53757 17 5.5C17 2.46243 14.5376 0 11.5 0Z" fill="#242748"/>
    <path d="M11.5 12C7.91015 12 5 14.9102 5 18.5C5 20.433 6.567 22 8.5 22H14.5C16.433 22 18 20.433 18 18.5C18 14.9102 15.0899 12 11.5 12Z" fill="#242748"/>
    <path d="M11.5 2C9.567 2 8 3.567 8 5.5C8 7.433 9.567 9 11.5 9C13.433 9 15 7.433 15 5.5C15 3.567 13.433 2 11.5 2Z" fill="white" opacity="0.8"/>
</svg>
